<?xml version="1.0" encoding="UTF-8" standalone="no"?>
<!DOCTYPE svg PUBLIC "-//W3C//DTD SVG 1.1//EN" "http://www.w3.org/Graphics/SVG/1.1/DTD/svg11.dtd">
<svg width="100%" height="100%" viewBox="0 0 1920 720" version="1.1" xmlns="http://www.w3.org/2000/svg" xmlns:xlink="http://www.w3.org/1999/xlink" xml:space="preserve" xmlns:serif="http://www.serif.com/" style="fill-rule:evenodd;clip-rule:evenodd;stroke-linecap:round;stroke-linejoin:round;stroke-miterlimit:1.5;">
    <g transform="matrix(1,0,0,1,18.7986,0)">
        <g transform="matrix(3.38252,0,0,3.38252,307.596,252.421)">
            <g transform="matrix(1,0,0,1,-50,-50)">
                <path d="M12.5,36.5L12.5,17.833C12.498,17.781 12.498,17.728 12.498,17.675C12.498,14.863 14.811,12.55 17.623,12.55C18.531,12.55 19.424,12.792 20.208,13.25L35.667,22.583C37.281,23.544 38.273,25.289 38.273,27.167C38.273,29.045 37.281,30.79 35.667,31.75L20.208,41.125C19.423,41.584 18.53,41.826 17.621,41.826C14.81,41.826 12.496,39.513 12.496,36.701C12.496,36.634 12.497,36.567 12.5,36.5ZM50,37.5L83.333,37.5C85.619,37.5 87.5,35.619 87.5,33.333C87.5,31.048 85.619,29.167 83.333,29.167L50,29.167C47.714,29.167 45.833,31.048 45.833,33.333C45.833,35.619 47.714,37.5 50,37.5ZM83.333,54.167L16.667,54.167C14.381,54.167 12.5,56.048 12.5,58.333C12.5,60.619 14.381,62.5 16.667,62.5L83.333,62.5C85.619,62.5 87.5,60.619 87.5,58.333C87.5,56.048 85.619,54.167 83.333,54.167ZM83.333,79.167L16.667,79.167C14.381,79.167 12.5,81.048 12.5,83.333C12.5,85.619 14.381,87.5 16.667,87.5L83.333,87.5C85.619,87.5 87.5,85.619 87.5,83.333C87.5,81.048 85.619,79.167 83.333,79.167Z" style="fill:white;fill-rule:nonzero;"/>
            </g>
        </g>
        <g transform="matrix(1.29321,0,0,1.29321,-91.2266,-261.295)">
            <text x="138.47px" y="547.063px" style="font-family:'SourceSansPro-Bold', 'Source Sans Pro', sans-serif;font-weight:700;font-size:143.924px;fill:rgb(228,58,161);">1.</text>
        </g>
    </g>
    <g transform="matrix(1,0,0,1,18.7986,0)">
        <g transform="matrix(0.933166,0,0,0.933166,95.2022,-100.389)">
            <g transform="matrix(6.21345,0,0,6.21345,1584.9,360)">
                <g transform="matrix(1,0,0,1,-32.5,-40.625)">
                    <g>
                        <g transform="matrix(1,0,0,1,1.13127e-07,8.125)">
                            <path d="M11.858,28.566C11.858,31.136 13.958,33.236 16.528,33.236C19.108,33.236 21.198,31.136 21.198,28.566C21.198,25.986 19.108,23.886 16.528,23.886C13.958,23.886 11.858,25.986 11.858,28.566Z" style="fill:white;fill-rule:nonzero;"/>
                        </g>
                        <g transform="matrix(1,0,0,1,1.13127e-07,8.125)">
                            <path d="M46.868,33.396C49.548,33.396 51.718,31.216 51.718,28.536C51.718,25.856 49.548,23.676 46.868,23.676C44.188,23.676 42.008,25.856 42.008,28.536C42.008,31.216 44.188,33.396 46.868,33.396Z" style="fill:white;fill-rule:nonzero;"/>
                        </g>
                        <g transform="matrix(1,0,0,1,1.13127e-07,8.125)">
                            <path d="M59.848,28.986C58.348,28.646 56.828,29.586 56.478,31.046L55.158,35.596L53.258,34.866C52.188,34.456 51.068,34.246 49.928,34.246L43.018,34.246C42.558,34.246 42.128,34.046 41.828,33.686L39.798,31.226C39.768,31.196 39.758,31.166 39.748,31.126L38.168,25.416C37.768,23.966 36.298,23.066 34.828,23.376C33.339,23.694 32.252,25.186 32.658,26.876L34.118,32.606C34.348,33.506 34.788,34.356 35.388,35.056L40.188,40.666L40.188,49.056L37.308,59.156C36.698,61.303 38.324,63.406 40.528,63.406C42.008,63.406 43.298,62.466 43.718,61.056L46.738,51.286L48.058,52.916C48.718,53.726 48.958,54.786 48.708,55.806L47.868,59.286C47.361,61.4 48.951,63.406 51.118,63.406L51.298,63.406C52.878,63.406 54.248,62.286 54.568,60.746L55.248,57.446C56.472,51.582 52.807,47.888 52.458,47.146L52.458,41.076L54.028,41.616C55.278,42.046 56.618,41.956 57.798,41.346C58.978,40.736 59.828,39.706 60.208,38.426L61.948,32.496C62.158,31.746 62.048,30.966 61.648,30.296C61.248,29.626 60.608,29.166 59.848,28.986Z" style="fill:white;fill-rule:nonzero;"/>
                        </g>
                        <g transform="matrix(1,0,0,1,1.13127e-07,8.125)">
                            <path d="M12.457,8.118L10.635,13.145C10.448,13.664 10.715,14.238 11.235,14.426C11.754,14.616 12.328,14.344 12.516,13.827L14.555,8.201C14.687,7.836 14.596,7.428 14.322,7.153L12.283,5.115C11.892,4.724 11.259,4.724 10.868,5.115C10.478,5.505 10.478,6.139 10.868,6.529L12.457,8.118Z" style="fill:white;fill-rule:nonzero;"/>
                        </g>
                        <g transform="matrix(1,0,0,1,1.13127e-07,8.125)">
                            <path d="M24.157,6.822C24.709,6.822 25.157,6.374 25.157,5.822L25.157,2.411C25.157,1.858 24.709,1.411 24.157,1.411C23.604,1.411 23.157,1.858 23.157,2.411L23.157,5.822C23.157,6.374 23.604,6.822 24.157,6.822Z" style="fill:white;fill-rule:nonzero;"/>
                        </g>
                        <g transform="matrix(1,0,0,1,1.13127e-07,8.125)">
                            <path d="M35.802,7.871C36.065,7.385 35.884,6.778 35.398,6.515L33.313,5.386L34.477,2.824C34.705,2.321 34.483,1.729 33.981,1.5C33.474,1.273 32.883,1.495 32.657,1.997L31.107,5.408C30.889,5.886 31.079,6.451 31.541,6.701L34.447,8.274C34.922,8.533 35.535,8.363 35.802,7.871Z" style="fill:white;fill-rule:nonzero;"/>
                        </g>
                        <g transform="matrix(1,0,0,1,1.13127e-07,8.125)">
                            <path d="M45.886,19.585L48.791,18.012C49.253,17.762 49.444,17.197 49.226,16.719L47.676,13.308C47.449,12.806 46.859,12.584 46.352,12.811C45.85,13.039 45.627,13.632 45.856,14.135L47.02,16.697L44.935,17.826C44.449,18.088 44.268,18.695 44.531,19.181C44.799,19.675 45.411,19.844 45.886,19.585Z" style="fill:white;fill-rule:nonzero;"/>
                        </g>
                        <g transform="matrix(1,0,0,1,1.13127e-07,8.125)">
                            <path d="M47.53,8.369C48.139,8.369 48.604,7.832 48.521,7.232L48.076,4.005C48,3.459 47.497,3.071 46.949,3.151C46.402,3.227 46.019,3.732 46.095,4.278L46.54,7.505C46.609,8.006 47.037,8.369 47.53,8.369Z" style="fill:white;fill-rule:nonzero;"/>
                        </g>
                        <g transform="matrix(1,0,0,1,1.13127e-07,8.125)">
                            <path d="M37.034,14.902C37.503,15.21 38.12,15.071 38.418,14.617L40.354,11.675C40.658,11.213 40.53,10.593 40.069,10.29C39.607,9.987 38.987,10.115 38.684,10.575L36.748,13.517C36.445,13.979 36.573,14.599 37.034,14.902Z" style="fill:white;fill-rule:nonzero;"/>
                        </g>
                        <g transform="matrix(1,0,0,1,1.13127e-07,8.125)">
                            <path d="M4.404,15.378C3.943,15.681 3.815,16.301 4.118,16.763L6.054,19.705C6.352,20.16 6.97,20.298 7.439,19.991C7.9,19.687 8.028,19.067 7.724,18.606L5.788,15.663C5.487,15.202 4.868,15.075 4.404,15.378Z" style="fill:white;fill-rule:nonzero;"/>
                        </g>
                        <g transform="matrix(1,0,0,1,1.13127e-07,8.125)">
                            <path d="M62.567,5.734C62.104,5.431 61.485,5.558 61.182,6.02L59.246,8.962C58.943,9.423 59.071,10.043 59.532,10.347C60.001,10.654 60.618,10.516 60.916,10.061L62.852,7.119C63.156,6.658 63.028,6.038 62.567,5.734Z" style="fill:white;fill-rule:nonzero;"/>
                        </g>
                        <g transform="matrix(1,0,0,1,1.13127e-07,8.125)">
                            <path d="M55.237,4.662C55.616,5.072 56.248,5.088 56.65,4.717C57.055,4.343 57.08,3.71 56.705,3.304L55.253,1.732C54.877,1.327 54.245,1.301 53.84,1.676C53.435,2.051 53.41,2.684 53.785,3.089L55.237,4.662Z" style="fill:white;fill-rule:nonzero;"/>
                        </g>
                        <g transform="matrix(1,0,0,1,1.13127e-07,8.125)">
                            <path d="M25.326,11.804L26.778,13.376C27.157,13.786 27.789,13.803 28.191,13.432C28.596,13.057 28.621,12.424 28.246,12.019L26.794,10.446C26.419,10.041 25.787,10.016 25.381,10.391C24.976,10.765 24.951,11.398 25.326,11.804Z" style="fill:white;fill-rule:nonzero;"/>
                        </g>
                        <g transform="matrix(1,0,0,1,1.13127e-07,8.125)">
                            <path d="M17.99,17.678L19.442,16.105C19.817,15.699 19.791,15.067 19.386,14.692C18.98,14.318 18.346,14.343 17.973,14.749L16.521,16.321C16.146,16.727 16.171,17.359 16.576,17.734C16.985,18.111 17.618,18.082 17.99,17.678Z" style="fill:white;fill-rule:nonzero;"/>
                        </g>
                        <g transform="matrix(1,0,0,1,1.13127e-07,8.125)">
                            <path d="M53.803,14.951L55.254,13.378C55.628,12.972 55.603,12.339 55.197,11.965C54.793,11.591 54.159,11.616 53.784,12.022L52.332,13.594C51.958,14 51.984,14.633 52.39,15.007C52.792,15.381 53.427,15.358 53.803,14.951Z" style="fill:white;fill-rule:nonzero;"/>
                        </g>
                        <g transform="matrix(1,0,0,1,1.13127e-07,8.125)">
                            <path d="M3.134,6.732C3.662,6.85 4.205,6.52 4.326,5.972L5.052,2.693C5.171,2.154 4.83,1.62 4.291,1.501C3.754,1.379 3.218,1.722 3.099,2.261L2.373,5.539C2.254,6.079 2.595,6.612 3.134,6.732Z" style="fill:white;fill-rule:nonzero;"/>
                        </g>
                        <g transform="matrix(1,0,0,1,1.13127e-07,8.125)">
                            <path d="M29.548,23.256C28.009,22.507 26.238,23.327 25.758,24.916L24.425,29.385C24.396,29.439 24.368,29.492 24.338,29.546L21.118,33.336C20.888,33.596 20.558,33.756 20.198,33.756L12.518,33.756C12.148,33.756 11.828,33.606 11.598,33.336L8.388,29.556C8.355,29.495 8.303,29.399 8.27,29.337L7.318,26.146C6.968,24.986 5.928,24.206 4.708,24.196C2.888,24.196 1.56,25.975 2.108,27.726L3.288,31.536C3.448,32.076 3.738,32.596 4.138,33.046L10.488,40.056L10.488,61.24C10.488,62.537 11.54,63.589 12.838,63.589L13.18,63.589C14.478,63.589 15.53,62.537 15.53,61.24L15.53,53.318C15.53,52.766 15.977,52.318 16.53,52.318C17.082,52.318 17.53,52.766 17.53,53.318L17.53,61.24C17.53,62.537 18.581,63.589 19.879,63.589C21.176,63.589 22.228,62.537 22.228,61.24L22.228,40.056L28.578,33.046C28.968,32.616 29.258,32.106 29.418,31.536L30.958,26.476C31.348,25.196 30.748,23.836 29.548,23.256Z" style="fill:white;fill-rule:nonzero;"/>
                        </g>
                    </g>
                </g>
            </g>
            <g transform="matrix(2.27506e-17,-0.373785,0.373785,2.27506e-17,1211.78,1067.62)">
                <text x="1452.77px" y="597.084px" style="font-family:'SourceSansPro-Bold', 'Source Sans Pro', sans-serif;font-weight:700;font-size:30.506px;fill:white;">Cr<tspan x="1482.36px 1497.83px 1514.12px 1525.5px " y="597.084px 597.084px 597.084px 597.084px ">eate</tspan>d b<tspan x="1582.36px " y="597.084px ">y</tspan> V<tspan x="1620.99px " y="597.084px ">e</tspan>ct<tspan x="1662.41px 1679.34px 1691.18px " y="597.084px 597.084px 597.084px ">ors</tspan> P<tspan x="1728.89px " y="597.084px ">o</tspan>int</text>
                <text x="1452.77px" y="627.59px" style="font-family:'SourceSansPro-Regular', 'Source Sans Pro', sans-serif;font-size:30.506px;fill:white;">fr<tspan x="1471.96px " y="627.59px ">o</tspan>m the Noun Pr<tspan x="1671.72px " y="627.59px ">o</tspan>ject</text>
            </g>
        </g>
        <g transform="matrix(1.29321,0,0,1.29321,1133.24,-259.061)">
            <text x="138.47px" y="547.063px" style="font-family:'SourceSansPro-Bold', 'Source Sans Pro', sans-serif;font-weight:700;font-size:143.924px;fill:rgb(228,58,161);">3.</text>
        </g>
    </g>
    <g transform="matrix(1,0,0,1,55.3324,-2.84217e-14)">
        <g transform="matrix(3.87501,0,0,3.87501,927.189,252.421)">
            <g transform="matrix(1,0,0,1,-50,-50)">
                <path d="M79.167,17.417L79.167,25.75C79.169,27.959 77.415,29.806 75.208,29.917L54.167,32.333C54.207,32.665 54.207,33.001 54.167,33.333L54.167,70.417C54.166,70.975 54.052,71.528 53.833,72.042C52.229,80.909 44.435,87.42 35.424,87.42C25.161,87.42 16.715,78.975 16.715,68.712C16.715,58.448 25.161,50.003 35.424,50.003C39.13,50.003 42.754,51.105 45.833,53.167L45.833,20.208C45.831,17.999 47.585,16.152 49.792,16.042L73.625,13.25C73.943,13.181 74.268,13.146 74.594,13.146C76.99,13.146 79.003,15.026 79.167,17.417Z" style="fill:white;fill-rule:nonzero;"/>
            </g>
        </g>
        <g transform="matrix(1.29321,0,0,1.29321,503.742,-261.295)">
            <text x="138.47px" y="547.063px" style="font-family:'SourceSansPro-Bold', 'Source Sans Pro', sans-serif;font-weight:700;font-size:143.924px;fill:rgb(228,58,161);">2.</text>
        </g>
    </g>
    <g transform="matrix(0.676083,0,0,0.676083,80.8095,180.638)">
        <text x="52.419px" y="569.363px" style="font-family:'SourceSansPro-Light', 'Source Sans Pro', sans-serif;font-weight:300;font-size:92.04px;fill:white;">Choose a</text>
        <text x="52.419px" y="661.403px" style="font-family:'SourceSansPro-Bold', 'Source Sans Pro', sans-serif;font-weight:700;font-size:92.04px;fill:white;">playlist …</text>
    </g>
    <g transform="matrix(0.676083,0,0,0.676083,662.344,180.638)">
        <text x="52.419px" y="569.363px" style="font-family:'SourceSansPro-Light', 'Source Sans Pro', sans-serif;font-weight:300;font-size:92.04px;fill:white;">Select a</text>
        <text x="52.419px" y="661.403px" style="font-family:'SourceSansPro-Bold', 'Source Sans Pro', sans-serif;font-weight:700;font-size:92.04px;fill:white;">st<tspan x="127.34px " y="661.403px ">a</tspan>rting song …</text>
    </g>
    <g transform="matrix(0.676083,0,0,0.676083,1298.46,177.9)">
        <text x="52.419px" y="569.363px" style="font-family:'SourceSansPro-Light', 'Source Sans Pro', sans-serif;font-weight:300;font-size:92.04px;fill:white;">Enjoy your</text>
        <text x="52.419px" y="661.403px" style="font-family:'SourceSansPro-Bold', 'Source Sans Pro', sans-serif;font-weight:700;font-size:92.04px;fill:white;">sort<tspan x="215.238px " y="661.403px ">e</tspan>d playlist!</text>
    </g>
    <g transform="matrix(1.058,0,0,1.058,-18.7189,106.086)">
        <g transform="matrix(0.613257,0,0,0.613257,234.863,87.7508)">
            <path d="M566.467,216.768L650.337,300.638L566.467,384.508L482.597,300.638L566.467,216.768Z" style="fill:none;stroke:rgb(228,58,161);stroke-width:12.33px;"/>
        </g>
        <g transform="matrix(0.437646,0,0,0.67403,333.865,198.76)">
            <path d="M519.4,112.876L519.4,104.797L591.89,104.797L567.573,89.008L576.371,83.296L615.707,108.836L576.371,134.377L567.573,128.665L591.89,112.876L519.4,112.876Z" style="fill:rgb(228,58,161);"/>
        </g>
    </g>
    <g transform="matrix(1.058,0,0,1.058,560.247,106.086)">
        <g transform="matrix(0.613257,0,0,0.613257,234.863,87.7508)">
            <path d="M566.467,216.768L650.337,300.638L566.467,384.508L482.597,300.638L566.467,216.768Z" style="fill:none;stroke:rgb(228,58,161);stroke-width:12.33px;"/>
        </g>
        <g transform="matrix(0.437646,0,0,0.67403,333.865,198.76)">
            <path d="M519.4,112.876L519.4,104.797L591.89,104.797L567.573,89.008L576.371,83.296L615.707,108.836L576.371,134.377L567.573,128.665L591.89,112.876L519.4,112.876Z" style="fill:rgb(228,58,161);"/>
        </g>
    </g>
</svg>
